<?xml version="1.0" encoding="UTF-8" standalone="no"?>
<!DOCTYPE svg PUBLIC "-//W3C//DTD SVG 1.1//EN" "http://www.w3.org/Graphics/SVG/1.1/DTD/svg11.dtd">
<svg width="100%" height="100%" viewBox="0 0 32 32" version="1.1" xmlns="http://www.w3.org/2000/svg" xmlns:xlink="http://www.w3.org/1999/xlink" xml:space="preserve" xmlns:serif="http://www.serif.com/" style="fill-rule:evenodd;clip-rule:evenodd;stroke-linecap:round;stroke-linejoin:round;stroke-miterlimit:1.5;">
    <g transform="matrix(0.933403,0,0,0.933403,1.06556,1.06556)">
        <g transform="matrix(1.23726,0,0,1.23726,0,0)">
            <circle cx="12.932" cy="12.932" r="12.932" style="fill:rgb(204,227,222);stroke:rgb(33,37,41);stroke-width:1.3px;"/>
        </g>
        <g transform="matrix(0.568053,0,0,0.568053,6.91086,6.91115)">
            <path d="M9.55,0.5L4.45,0.5C3.62,0.5 2.95,1.17 2.95,2L2.95,7.1C2.95,7.93 3.62,8.6 4.45,8.6L9.55,8.6C10.38,8.6 11.05,7.93 11.05,7.1L11.05,2C11.05,1.17 10.38,0.5 9.55,0.5ZM27.551,3.052L15.425,3.052C14.596,3.052 13.925,3.724 13.925,4.552C13.925,5.38 14.596,6.052 15.425,6.052L27.551,6.052C28.379,6.052 29.051,5.38 29.051,4.552C29.051,3.724 28.379,3.052 27.551,3.052ZM9.55,11.95L4.45,11.95C3.62,11.95 2.95,12.62 2.95,13.45L2.95,18.55C2.95,19.38 3.62,20.05 4.45,20.05L9.55,20.05C10.38,20.05 11.05,19.38 11.05,18.55L11.05,13.45C11.05,12.62 10.38,11.95 9.55,11.95ZM27.551,14.5L15.425,14.5C14.596,14.5 13.925,15.172 13.925,16C13.925,16.828 14.596,17.5 15.425,17.5L27.551,17.5C28.379,17.5 29.051,16.828 29.051,16C29.051,15.172 28.379,14.5 27.551,14.5ZM9.55,23.4L4.45,23.4C3.62,23.4 2.95,24.07 2.95,24.9L2.95,30C2.95,30.83 3.62,31.5 4.45,31.5L9.55,31.5C10.38,31.5 11.05,30.83 11.05,30L11.05,24.9C11.05,24.07 10.38,23.4 9.55,23.4ZM27.551,25.948L15.425,25.948C14.596,25.948 13.925,26.62 13.925,27.448C13.925,28.276 14.596,28.948 15.425,28.948L27.551,28.948C28.379,28.948 29.051,28.276 29.051,27.448C29.051,26.62 28.379,25.948 27.551,25.948Z" style="fill:rgb(33,37,41);fill-rule:nonzero;"/>
        </g>
    </g>
</svg>
