<svg xmlns="http://www.w3.org/2000/svg" data-name="Layer 1" viewBox="0 0 24 24"><path d="M3.70605,8.36572l1.73145,1a.99007.99007,0,0,0,.499.13428.99977.99977,0,0,0,.501-1.86572l-1.73145-1a.99974.99974,0,1,0-1,1.73144ZM6,12a.99974.99974,0,0,0-1-1H3a1,1,0,0,0,0,2H5A.99974.99974,0,0,0,6,12Zm.80371,3a.99891.99891,0,0,0-1.36621-.36572l-1.73145,1a.99974.99974,0,1,0,1,1.73144l1.73145-1A.9993.9993,0,0,0,6.80371,15ZM15,6.8042A1.0006,1.0006,0,0,0,16.36621,6.438l1-1.73242a1.00016,1.00016,0,1,0-1.73242-1l-1,1.73242A.99988.99988,0,0,0,15,6.8042ZM17.19629,9a1.0001,1.0001,0,0,0,.86719.5.99007.99007,0,0,0,.499-.13428l1.73145-1a.99974.99974,0,1,0-1-1.73144l-1.73145,1A.9993.9993,0,0,0,17.19629,9ZM20.294,15.63428l-1.73145-1a.99974.99974,0,1,0-1,1.73144l1.73145,1a.99.99,0,0,0,.499.13428.99977.99977,0,0,0,.501-1.86572ZM16.36621,17.562a1.00016,1.00016,0,1,0-1.73242,1l1,1.73242a1.00016,1.00016,0,1,0,1.73242-1ZM9,17.1958a.99946.99946,0,0,0-1.36621.36621l-1,1.73242a1.00016,1.00016,0,0,0,1.73242,1l1-1.73242A.99988.99988,0,0,0,9,17.1958ZM21,11H19a1,1,0,0,0,0,2h2a1,1,0,0,0,0-2ZM12,2a.99974.99974,0,0,0-1,1V5a1,1,0,0,0,2,0V3A.99974.99974,0,0,0,12,2Zm0,16a.99974.99974,0,0,0-1,1v2a1,1,0,0,0,2,0V19A.99974.99974,0,0,0,12,18Z"/></svg>